<svg width="512" height="512" viewBox="0 0 512 512" fill="none" xmlns="http://www.w3.org/2000/svg">
<path d="M477.165 127.684L256.006 0L34.847 127.684L34.297 128V384L34.367 384.047L256.006 512L477.633 384.035L477.703 384V128L477.165 127.684Z" fill="#4E4E4F"/>
<path d="M477.165 127.684L256.006 0V255.38V256.082V512L477.633 384.035L477.703 384V128L477.165 127.684Z" fill="#FFB951"/>
<path d="M256.006 255.38V256.082L34.367 384.047L34.297 384V128L34.847 127.684L256.006 255.38Z" fill="#626263"/>
<path opacity="0.2" d="M477.703 128V384L477.633 384.035L256.006 256.082V255.38L477.165 127.684L477.703 128Z" fill="#FFA638"/>
<path opacity="0.2" d="M477.703 128V384L477.633 384.035L256.006 256.082V255.38L477.165 127.684L477.703 128Z" fill="#ED8300"/>
</svg>
