<svg width="512" height="512" viewBox="0 0 512 512" fill="none" xmlns="http://www.w3.org/2000/svg">
<path d="M256 254.08L161.92 208.64V335.36L256 380.8V254.08Z" fill="#ECAB4B"/>
<path d="M256 254.08V380.8L350.08 335.36V208.64L256 254.08Z" fill="#D19845"/>
<path d="M256 254.08L350.08 208.64L256 163.2L161.92 208.64L256 254.08Z" fill="#DB9E45"/>
<path d="M256 90.8799L161.92 45.44V172.16L256 217.6V90.8799Z" fill="#626263"/>
<path d="M256 90.8799V217.6L350.08 172.16V45.44L256 90.8799Z" fill="#4E4E4F"/>
<path d="M256 90.8799L350.08 45.44L256 0L161.92 45.44L256 90.8799Z" fill="#737374"/>
<path d="M402.56 326.4L307.841 280.96V407.681L402.56 453.12V326.4Z" fill="#626263"/>
<path d="M402.56 326.4V453.12L496.64 407.681V280.96L402.56 326.4Z" fill="#4E4E4F"/>
<path d="M402.56 326.4L496.641 280.96L402.56 235.52L307.841 280.96L402.56 326.4Z" fill="#737374"/>
<path d="M402.56 163.2L307.841 117.76V244.48L402.56 289.92V163.2Z" fill="#626263"/>
<path d="M402.56 163.2V289.92L496.64 244.48V117.76L402.56 163.2Z" fill="#4E4E4F"/>
<path d="M402.56 163.2L496.641 117.76L402.56 72.3202L307.841 117.76L402.56 163.2Z" fill="#737374"/>
<path d="M109.44 326.4L15.3596 280.96V407.681L109.44 453.12V326.4Z" fill="#626263"/>
<path d="M109.44 326.4V453.12L204.161 407.681V280.96L109.44 326.4Z" fill="#4E4E4F"/>
<path d="M109.44 326.4L204.161 280.96L109.44 235.52L15.3596 280.96L109.44 326.4Z" fill="#737374"/>
<path d="M109.44 163.2L15.3596 117.76V244.48L109.44 289.92V163.2Z" fill="#626263"/>
<path d="M109.44 163.2V289.92L204.161 244.48V117.76L109.44 163.2Z" fill="#4E4E4F"/>
<path d="M109.44 163.2L204.161 117.76L109.44 72.3202L15.3596 117.76L109.44 163.2Z" fill="#737374"/>
<path d="M256 385.28L161.92 339.84V466.56L256 512V385.28Z" fill="#626263"/>
<path d="M256 385.28V512L350.08 466.56V339.84L256 385.28Z" fill="#4E4E4F"/>
<path d="M256 385.28L350.08 339.84L256 294.4L161.92 339.84L256 385.28Z" fill="#737374"/>
<path d="M256 222.08L161.92 176.64V303.36L256 348.8V222.08Z" fill="#ECAB4B"/>
<path d="M256 222.08V348.8L350.08 303.36V176.64L256 222.08Z" fill="#DB9E45"/>
<path d="M256 222.08L350.08 176.64L256 131.2L161.92 176.64L256 222.08Z" fill="#FFB951"/>
</svg>
