<svg width="512" height="512" viewBox="0 0 512 512" fill="none" xmlns="http://www.w3.org/2000/svg">
<g clip-path="url(#clip0)">
<path d="M256.063 189.348L43.729 350.673L256.063 511.997L468.396 350.673L256.063 189.348Z" fill="#4E4E4F"/>
<path d="M256.07 94.4237L43.7366 255.748L256.07 417.072L468.404 255.748L256.07 94.4237Z" fill="#626263"/>
<path d="M256.057 94.4151L105.856 208.533L256.057 322.651L406.258 208.533L256.057 94.4151Z" fill="#FFA638"/>
<path d="M256.065 189.354L168.339 256.005L256.065 322.656L343.79 256.005L256.065 189.354Z" fill="#808080"/>
<path d="M256.077 -5.97997e-06L43.7432 161.324L256.077 322.648L468.41 161.324L256.077 -5.97997e-06Z" fill="#FFB951"/>
<path opacity="0.05" d="M256.067 95.3552L106.21 209.212L256.067 323.068L405.924 209.212L256.067 95.3552Z" fill="#19191B"/>
</g>
<defs>
<clipPath id="clip0">
<rect width="512" height="512" fill="white"/>
</clipPath>
</defs>
</svg>
