<?xml version="1.0" encoding="utf-8"?>
<!-- Generator: Adobe Illustrator 23.0.3, SVG Export Plug-In . SVG Version: 6.00 Build 0)  -->
<svg version="1.1" id="Layer_1" xmlns="http://www.w3.org/2000/svg" xmlns:xlink="http://www.w3.org/1999/xlink" x="0px" y="0px"
	 viewBox="0 0 640.64 260.65" style="enable-background:new 0 0 640.64 260.65;" xml:space="preserve">
<style type="text/css">
	.st0{fill:none;stroke:#2F0DFF;stroke-width:4;stroke-linecap:round;stroke-miterlimit:10;}
	.st1{fill:#2F0DFF;}
	.st2{fill:#FFFFFF;}
	.st3{fill:#00354B;}
	.st4{fill:#F16728;}
</style>
<g>
	<path class="st2" d="M144.19,141.21c0,1.52-1.23,2.74-2.74,2.74c-1.52,0-2.74-1.23-2.74-2.74c0-1.52,1.23-2.74,2.74-2.74
		C142.96,138.47,144.19,139.7,144.19,141.21z M172.84,126.33c0,26.44-21.51,47.96-47.96,47.96c-12.38,0-23.68-4.72-32.2-12.45
		c-5.03,2.6-10.49,4.18-16.24,4.18c-10.29,0-20.42-6.43-23.07-12.2c-0.46-1-0.02-2.19,0.98-2.65c1-0.46,2.19-0.02,2.65,0.98
		c1.89,4.12,10.2,9.87,19.44,9.87c4.64,0,9.09-1.18,13.26-3.15c-7.92-8.56-12.77-19.99-12.77-32.54c0-26.44,21.51-47.96,47.96-47.96
		C151.32,78.37,172.84,99.88,172.84,126.33z M168.84,126.33c0-24.24-19.72-43.96-43.96-43.96c-24.24,0-43.96,19.72-43.96,43.96
		c0,11.87,4.74,22.66,12.42,30.58c4.45-2.7,8.52-6.27,12.06-10.22c-4.53-4.96-6.41-12.1-6.47-18.63
		c-0.11-12.62,6.07-25.74,16.61-25.86c0.05,0,0.09,0,0.14,0c4.38,0,6.62,2.25,7.74,4.16c3.52,6,1.21,17.89-5.9,30.3
		c-1.84,3.21-4.03,6.47-6.53,9.6c2.58,1.75,5.84,2.74,9.96,2.75c4.37-0.03,8.09-1.92,9.11-2.92c0.79-0.78,2.05-0.77,2.83,0.02
		c0.77,0.79,0.77,2.05-0.02,2.83c-1.98,1.95-6.82,4.04-11.89,4.08c-0.06,0-0.13,0-0.19,0c-5.15,0-9.23-1.39-12.42-3.67
		c-3.54,3.95-7.59,7.55-12.03,10.4c7.69,6.58,17.65,10.56,28.54,10.56C149.12,170.28,168.84,150.56,168.84,126.33z M114.05,134.65
		c6.21-10.84,8.64-21.65,5.92-26.28c-0.86-1.47-2.27-2.18-4.29-2.18c-0.03,0-0.06,0-0.1,0c-7.69,0.08-12.75,11.35-12.66,21.82
		c0.05,5.64,1.54,11.49,5.08,15.57C110.31,140.67,112.34,137.64,114.05,134.65z"/>
	<g>
		<path class="st2" d="M199.44,152.09c-0.42,0-0.73-0.12-1-0.39c-0.27-0.27-0.39-0.57-0.39-0.97v-22.31c0-0.43,0.12-0.76,0.39-1.02
			c0.27-0.27,0.58-0.39,1-0.39c0.41,0,0.73,0.12,1,0.39c0.26,0.27,0.39,0.59,0.39,1.02v22.31c0,0.4-0.12,0.71-0.39,0.97
			C200.17,151.96,199.86,152.09,199.44,152.09z M199.31,119.9c-0.47,0-0.84-0.16-1.18-0.49c-0.34-0.34-0.49-0.71-0.49-1.18v-0.21
			c0-0.47,0.16-0.84,0.49-1.18c0.34-0.34,0.71-0.49,1.18-0.49h0.31c0.47,0,0.84,0.16,1.18,0.49c0.34,0.34,0.49,0.71,0.49,1.18v0.21
			c0,0.47-0.16,0.84-0.49,1.18c-0.34,0.34-0.71,0.49-1.18,0.49H199.31z"/>
		<path class="st2" d="M229.59,152.09c-0.4,0-0.71-0.12-0.97-0.39c-0.27-0.27-0.39-0.57-0.39-0.97v-14.25
			c0-2.19-0.52-3.96-1.53-5.26c-1.07-1.37-2.81-2.06-5.16-2.06c-3.35,0-6.48,1.8-9.29,5.36l-0.21,0.27v15.94
			c0,0.39-0.13,0.7-0.4,0.96c-0.29,0.27-0.61,0.4-1.01,0.4c-0.4,0-0.71-0.12-0.97-0.39c-0.27-0.27-0.39-0.57-0.39-0.97v-22.31
			c0-0.43,0.12-0.76,0.39-1.02c0.27-0.27,0.58-0.39,0.97-0.39c0.4,0,0.73,0.13,1.01,0.4c0.27,0.26,0.4,0.59,0.4,1.01v4.58l1.69-1.77
			c1.32-1.38,2.45-2.36,3.37-2.9c1.81-1.05,3.54-1.58,5.15-1.58c1.63,0,2.97,0.24,3.98,0.71c1.01,0.48,1.88,1.13,2.58,1.96
			c1.49,1.74,2.21,3.88,2.21,6.54v14.77c0,0.39-0.13,0.7-0.4,0.96C230.32,151.96,230,152.09,229.59,152.09z"/>
		<path class="st2" d="M246.72,152.35c-3.3,0-6.3-0.74-8.94-2.19c-0.38-0.28-0.43-0.53-0.43-0.73c0-0.39,0.1-0.69,0.33-0.94
			c0.28-0.32,0.46-0.32,0.51-0.32c0.21,0,0.6,0.06,1.22,0.33c2.12,0.95,4.48,1.44,7,1.44c5.58,0,6.75-2.54,6.75-4.67
			c0-0.79-0.29-1.89-1.67-2.61c-0.83-0.43-1.87-0.82-3.09-1.14c-1.17-0.31-2.43-0.64-3.79-0.97c-1.27-0.31-2.47-0.75-3.56-1.3
			c-1.03-0.52-1.89-1.21-2.56-2.05c-0.63-0.78-0.93-1.73-0.93-2.9c0-1.25,0.18-2.33,0.55-3.21c0.36-0.86,0.9-1.61,1.61-2.24
			c1.64-1.39,3.99-2.1,7-2.1c2.47,0,4.9,0.42,7.21,1.24c0.29,0.1,0.5,0.25,0.64,0.46c0.15,0.22,0.22,0.45,0.22,0.72
			c0,0.08,0,0.31-0.33,0.65c-0.24,0.25-0.41,0.32-0.46,0.32c-0.19,0-0.54-0.04-1.11-0.21c-1.75-0.55-3.69-0.82-5.75-0.82
			c-2.2,0-3.85,0.4-5.05,1.21c-1.62,1.1-1.96,2.4-1.96,3.3c0,1.31,0.57,2.35,1.65,3c0.85,0.51,1.9,0.94,3.13,1.28
			c1.16,0.32,2.44,0.63,3.81,0.95c1.29,0.29,2.48,0.71,3.56,1.23c2.35,1.21,3.5,3.03,3.5,5.57c0,1.93-0.7,3.45-2.14,4.66
			C252.01,151.65,249.69,152.35,246.72,152.35z"/>
		<path class="st2" d="M267.33,152.35c-2.17,0-3.92-0.6-5.34-1.84c-1.45-1.27-2.16-2.9-2.16-4.98c0-2.26,0.82-3.98,2.52-5.25
			c1.93-1.46,4.78-2.2,8.46-2.2h7.27v-1.39c0-2.61-0.69-4.53-2.05-5.71c-1.32-1.14-3.3-1.72-5.89-1.72c-2.1,0-4.53,0.44-7.21,1.3
			c-0.14,0.03-0.37,0.06-0.64,0.06c0,0-0.14-0.01-0.42-0.28c-0.22-0.21-0.27-0.65-0.27-0.98c0-0.16,0-0.5,0.76-0.82
			c2.78-1.19,5.69-1.79,8.67-1.79c3.28,0,5.73,0.95,7.49,2.9c1.58,1.71,2.35,3.79,2.35,6.36v14.71c0,0.39-0.13,0.7-0.4,0.96
			c-0.29,0.27-0.61,0.4-1.01,0.4c-0.4,0-0.71-0.12-0.97-0.39c-0.27-0.27-0.39-0.57-0.39-0.97v-3.77l-1.68,1.74
			c-0.86,0.89-2.04,1.74-3.52,2.52C271.45,151.96,269.58,152.35,267.33,152.35z M271.44,139.92c-2.63,0-4.65,0.33-6.17,1.02
			c-1.74,0.78-2.66,2.19-2.66,4.06c0,2.34,1.13,5.14,6.49,5.14c1.79,0,3.49-0.45,5.03-1.32c1.49-0.85,2.74-1.82,3.7-2.9l0.25-0.28
			v-5.72H271.44z"/>
		<path class="st2" d="M309.21,152.09c-0.4,0-0.71-0.12-0.97-0.39c-0.27-0.27-0.39-0.57-0.39-0.97v-14.25
			c0-2.19-0.52-3.96-1.53-5.26c-1.07-1.37-2.81-2.06-5.16-2.06c-3.35,0-6.48,1.8-9.29,5.36l-0.21,0.27v15.94
			c0,0.39-0.13,0.7-0.4,0.96c-0.29,0.27-0.61,0.4-1.01,0.4c-0.4,0-0.71-0.12-0.97-0.39c-0.27-0.27-0.39-0.57-0.39-0.97v-22.31
			c0-0.43,0.12-0.76,0.39-1.02c0.27-0.27,0.58-0.39,0.97-0.39c0.4,0,0.73,0.13,1.01,0.4c0.27,0.26,0.4,0.59,0.4,1.01v4.58l1.69-1.77
			c1.32-1.38,2.45-2.36,3.37-2.9c1.81-1.05,3.54-1.58,5.15-1.58c1.63,0,2.97,0.24,3.98,0.71c1.01,0.48,1.88,1.13,2.58,1.96
			c1.49,1.74,2.21,3.88,2.21,6.54v14.77c0,0.39-0.13,0.7-0.4,0.96C309.93,151.96,309.61,152.09,309.21,152.09z"/>
		<path class="st2" d="M329.5,152.35c-3.97,0-7.08-1.11-9.23-3.3c-2.16-2.19-3.25-5.39-3.25-9.5c0-3.57,0.93-6.57,2.76-8.91
			c2.04-2.62,4.89-3.89,8.69-3.89c3.61,0,6.38,1.18,8.46,3.61c1.95,2.27,2.94,5.13,2.94,8.51c0,0.41-0.12,0.72-0.38,0.99
			c-0.16,0.16-0.43,0.38-1.04,0.38h-18.73l0.13,1.09c0.3,2.58,1.3,4.68,2.96,6.22c1.67,1.55,3.99,2.34,6.91,2.34
			c2.81,0,5.21-0.49,7.14-1.45c0.6-0.3,0.97-0.37,1.17-0.37c0.07,0,0.3,0,0.64,0.32c0.27,0.25,0.31,0.44,0.31,0.58
			c0,0.55-0.17,0.86-0.6,1.09c-0.73,0.39-1.38,0.72-1.96,0.99c-0.54,0.26-1.14,0.48-1.79,0.68
			C333.17,152.13,331.44,152.35,329.5,152.35z M328.46,128.79c-3.46,0-6.03,1.56-7.63,4.63c-0.58,1.08-0.92,2.4-0.99,3.89
			l-0.05,1.03h17.4l-0.06-1.03c-0.15-2.73-1.18-4.92-3.04-6.51C332.53,129.47,330.63,128.79,328.46,128.79z"/>
		<path class="st2" d="M348.06,152.09c-0.42,0-0.73-0.12-1-0.39c-0.27-0.27-0.39-0.57-0.39-0.97v-33.74c0-0.43,0.12-0.76,0.39-1.03
			c0.27-0.27,0.58-0.39,1-0.39c0.41,0,0.73,0.12,1,0.39c0.26,0.27,0.39,0.59,0.39,1.02v33.74c0,0.4-0.12,0.71-0.39,0.97
			C348.79,151.96,348.48,152.09,348.06,152.09z"/>
		<path class="st2" d="M362.93,164.04c-0.36,0-0.63-0.12-0.88-0.38c-0.17-0.18-0.38-0.44-0.38-0.67c0-0.43,0.06-0.65,0.09-0.75
			l3.52-9.04l-9.92-24.18c-0.09-0.22-0.13-0.52-0.13-0.88c0-0.22,0.14-0.47,0.4-0.75c0.35-0.36,0.63-0.4,0.8-0.4
			c0.94,0,1.26,0.44,1.44,0.86l8.9,22.06l9.08-21.97c0.36-0.84,0.85-0.96,1.28-0.96c0.39,0,0.69,0.13,0.96,0.4
			c0.27,0.28,0.4,0.54,0.4,0.78c0,0.54-0.07,0.71-0.08,0.73l-14.2,34.12C363.83,163.92,363.35,164.04,362.93,164.04z"/>
		<path class="st2" d="M394.34,146.82c1.49,1.39,3.57,2.08,6.24,2.08c2.67,0,4.9-0.45,6.71-1.35c0.62-0.31,1.16-0.47,1.61-0.47
			c0.45,0,0.88,0.19,1.3,0.57c0.42,0.38,0.62,0.81,0.62,1.3c0,0.9-0.37,1.55-1.12,1.95c-0.75,0.4-1.41,0.74-2,1.01
			c-0.59,0.28-1.23,0.52-1.92,0.73c-1.56,0.45-3.36,0.68-5.41,0.68c-4.26,0-7.57-1.2-9.93-3.59c-2.36-2.39-3.54-5.79-3.54-10.19
			c0-3.81,0.99-6.98,2.96-9.51c2.22-2.84,5.37-4.26,9.46-4.26c3.88,0,6.95,1.32,9.2,3.95c2.11,2.46,3.17,5.51,3.17,9.15
			c0,0.66-0.22,1.21-0.65,1.66c-0.43,0.45-1.01,0.68-1.74,0.68h-17.63C391.97,143.57,392.85,145.44,394.34,146.82z M399.33,129.77
			c-3.09,0-5.34,1.37-6.76,4.11c-0.52,0.97-0.81,2.13-0.88,3.48h15.34c-0.14-2.46-1.04-4.4-2.7-5.82
			C402.94,130.36,401.27,129.77,399.33,129.77z"/>
		<path class="st2" d="M419.19,115.26c0.45-0.45,1.01-0.68,1.69-0.68s1.24,0.23,1.69,0.68c0.45,0.45,0.68,1.02,0.68,1.72v33.74
			c0,0.66-0.23,1.21-0.68,1.66c-0.45,0.45-1.01,0.68-1.69,0.68s-1.24-0.23-1.69-0.68c-0.45-0.45-0.68-1.01-0.68-1.66v-33.74
			C418.52,116.29,418.74,115.71,419.19,115.26z"/>
		<path class="st2" d="M437.76,146.82c1.49,1.39,3.57,2.08,6.24,2.08c2.67,0,4.9-0.45,6.71-1.35c0.62-0.31,1.16-0.47,1.61-0.47
			c0.45,0,0.88,0.19,1.3,0.57c0.42,0.38,0.62,0.81,0.62,1.3c0,0.9-0.37,1.55-1.12,1.95c-0.75,0.4-1.41,0.74-2,1.01
			c-0.59,0.28-1.23,0.52-1.92,0.73c-1.56,0.45-3.36,0.68-5.41,0.68c-4.26,0-7.57-1.2-9.93-3.59c-2.36-2.39-3.54-5.79-3.54-10.19
			c0-3.81,0.99-6.98,2.96-9.51c2.22-2.84,5.37-4.26,9.46-4.26c3.88,0,6.95,1.32,9.2,3.95c2.11,2.46,3.17,5.51,3.17,9.15
			c0,0.66-0.22,1.21-0.65,1.66c-0.43,0.45-1.01,0.68-1.74,0.68H435.1C435.38,143.57,436.27,145.44,437.76,146.82z M442.75,129.77
			c-3.09,0-5.34,1.37-6.76,4.11c-0.52,0.97-0.81,2.13-0.88,3.48h15.34c-0.14-2.46-1.04-4.4-2.7-5.82
			C446.35,130.36,444.69,129.77,442.75,129.77z"/>
		<path class="st2" d="M481.38,129.72v-1.3c0-0.66,0.23-1.22,0.68-1.69c0.45-0.47,1-0.7,1.66-0.7c0.66,0,1.22,0.23,1.69,0.7
			c0.47,0.47,0.7,1.03,0.7,1.69v23.24c0,4.4-1.06,7.77-3.17,10.11c-2.11,2.34-5.13,3.51-9.05,3.51c-4.16,0-7.87-0.9-11.13-2.7
			c-0.62-0.38-0.94-0.91-0.94-1.59c0-0.68,0.2-1.24,0.6-1.69c0.4-0.45,0.81-0.68,1.25-0.68c0.43,0,0.82,0.07,1.17,0.21
			c2.63,1.32,5.49,1.98,8.58,1.98c5.3,0,7.95-2.83,7.95-8.47v-3.48c-2.46,2.63-5.43,3.95-8.89,3.95c-3.29,0-6.12-1.11-8.48-3.33
			c-2.74-2.53-4.11-5.93-4.11-10.19c0-4.26,1.37-7.66,4.11-10.19c2.36-2.22,5.23-3.33,8.61-3.33
			C476,125.77,478.92,127.08,481.38,129.72z M481.38,133.93c-0.97-1.01-2.08-1.9-3.33-2.68c-1.25-0.78-2.63-1.17-4.16-1.17
			c-1.53,0-2.83,0.19-3.9,0.57c-1.07,0.38-2.01,0.94-2.81,1.66c-1.7,1.6-2.55,3.92-2.55,6.97c0,4.47,1.79,7.35,5.36,8.63
			c1.07,0.38,2.37,0.57,3.9,0.57c2.53,0,5.03-1.28,7.49-3.85V133.93z"/>
		<path class="st2" d="M495.31,127.64c2.91-1.25,5.93-1.87,9.05-1.87c3.54,0,6.27,1.07,8.22,3.22c1.73,1.87,2.6,4.21,2.6,7.02v14.71
			c0,0.66-0.23,1.21-0.7,1.66c-0.47,0.45-1.03,0.68-1.69,0.68c-0.66,0-1.21-0.23-1.66-0.68c-0.45-0.45-0.68-1.01-0.68-1.66v-1.35
			c-0.94,0.97-2.19,1.87-3.77,2.7c-1.58,0.83-3.58,1.25-6.01,1.25c-2.39,0-4.39-0.69-5.98-2.08c-1.66-1.46-2.5-3.36-2.5-5.72
			c0-2.56,0.97-4.58,2.91-6.03c2.11-1.59,5.13-2.39,9.05-2.39h6.29v-0.42c0-2.32-0.57-3.98-1.72-4.97
			c-1.14-0.99-2.89-1.48-5.25-1.48c-2.01,0-4.32,0.42-6.92,1.25c-0.28,0.07-0.59,0.1-0.94,0.1c-0.35,0-0.71-0.18-1.09-0.55
			c-0.38-0.36-0.57-0.93-0.57-1.69C493.96,128.59,494.41,128.02,495.31,127.64z M496.93,145c0,2.77,1.84,4.16,5.51,4.16
			c1.63,0,3.15-0.4,4.55-1.2c1.4-0.8,2.56-1.7,3.46-2.7v-4.37h-5.67c-2.46,0-4.39,0.31-5.77,0.94
			C497.62,142.46,496.93,143.51,496.93,145z"/>
		<path class="st2" d="M536.44,130.13c-3.05,0-5.89,1.66-8.53,4.99v15.6c0,0.66-0.23,1.21-0.7,1.66c-0.47,0.45-1.03,0.68-1.69,0.68
			c-0.66,0-1.21-0.23-1.66-0.68c-0.45-0.45-0.68-1.01-0.68-1.66v-22.31c0-0.69,0.23-1.26,0.68-1.72c0.45-0.45,1.01-0.68,1.66-0.68
			c0.66,0,1.22,0.23,1.69,0.68c0.47,0.45,0.7,1.02,0.7,1.72v2.13c1.39-1.46,2.58-2.48,3.59-3.07c1.98-1.14,3.86-1.72,5.64-1.72
			c1.79,0,3.25,0.27,4.39,0.81c1.14,0.54,2.11,1.27,2.91,2.21c1.63,1.91,2.44,4.3,2.44,7.18v14.77c0,0.66-0.23,1.21-0.7,1.66
			c-0.47,0.45-1.03,0.68-1.69,0.68c-0.66,0-1.21-0.23-1.66-0.68c-0.45-0.45-0.68-1.01-0.68-1.66v-14.25c0-1.98-0.44-3.53-1.33-4.65
			C539.95,130.7,538.49,130.13,536.44,130.13z"/>
		<path class="st2" d="M564.34,149.16c0.92,0,1.58-0.08,1.98-0.23c0.4-0.16,0.83-0.23,1.3-0.23c0.47,0,0.89,0.17,1.27,0.52
			c0.38,0.35,0.57,0.87,0.57,1.56c0,0.69-0.35,1.2-1.04,1.51c-1.49,0.69-2.76,1.04-3.82,1.04c-1.06,0-2.02-0.05-2.89-0.16
			c-0.87-0.1-1.7-0.4-2.5-0.88c-1.91-1.11-2.86-3.05-2.86-5.82v-16.12h-3.69c-0.66,0-0.99-0.33-0.99-0.99
			c0-0.31,0.16-0.61,0.47-0.88l7.07-6.91c0.31-0.31,0.61-0.47,0.88-0.47c0.28,0,0.51,0.1,0.7,0.31c0.19,0.21,0.29,0.45,0.29,0.73
			v4.16h5.88c0.59,0,1.07,0.19,1.46,0.57c0.38,0.38,0.57,0.87,0.57,1.46c0,0.59-0.19,1.07-0.57,1.46c-0.38,0.38-0.87,0.57-1.46,0.57
			h-5.88v15.7c0,1.32,0.4,2.22,1.2,2.7C562.73,149.03,563.42,149.16,564.34,149.16z"/>
	</g>
</g>
</svg>
