<?xml version="1.0" encoding="utf-8"?>
<!-- Generator: Adobe Illustrator 23.0.3, SVG Export Plug-In . SVG Version: 6.00 Build 0)  -->
<svg version="1.1" id="Layer_1" xmlns="http://www.w3.org/2000/svg" xmlns:xlink="http://www.w3.org/1999/xlink" x="0px" y="0px"
	 viewBox="0 0 350 350" style="enable-background:new 0 0 350 350;" xml:space="preserve">
<style type="text/css">
	.st0{fill:none;stroke:#2F0DFF;stroke-width:4;stroke-linecap:round;stroke-miterlimit:10;}
	.st1{fill:#2F0DFF;}
	.st2{fill:#FFFFFF;}
	.st3{fill:#00354B;}
	.st4{fill:#F16728;}
</style>
<path class="st2" d="M250.93,211.25c0,3.69-2.99,6.68-6.68,6.68c-3.69,0-6.68-2.99-6.68-6.68s2.99-6.68,6.68-6.68
	C247.94,204.57,250.93,207.56,250.93,211.25z M320.68,175c0,64.39-52.38,116.77-116.77,116.77c-30.15,0-57.67-11.49-78.41-30.31
	c-12.25,6.33-25.54,10.18-39.55,10.18c-25.07,0-49.73-15.65-56.18-29.69c-1.12-2.44-0.05-5.34,2.39-6.46
	c2.44-1.12,5.33-0.05,6.46,2.39c4.61,10.03,24.84,24.02,47.33,24.02c11.31,0,22.14-2.86,32.28-7.67
	c-19.28-20.83-31.1-48.68-31.1-79.24c0-64.39,52.38-116.77,116.77-116.77C268.29,58.23,320.68,110.61,320.68,175z M310.94,175
	c0-59.02-48.01-107.03-107.03-107.03c-59.02,0-107.03,48.02-107.03,107.03c0,28.91,11.54,55.17,30.24,74.45
	c10.84-6.58,20.74-15.26,29.36-24.89c-11.03-12.08-15.62-29.46-15.75-45.37c-0.27-30.73,14.79-62.68,40.45-62.97
	c0.12,0,0.23,0,0.34,0c10.66,0,16.13,5.49,18.85,10.12c8.57,14.6,2.94,43.56-14.36,73.77c-4.48,7.82-9.82,15.76-15.91,23.37
	c6.29,4.25,14.22,6.68,24.25,6.7c10.63-0.07,19.69-4.67,22.18-7.12c1.92-1.89,5-1.86,6.89,0.05c1.89,1.92,1.86,5-0.05,6.89
	c-4.82,4.75-16.61,9.84-28.95,9.92c-0.15,0-0.31,0-0.46,0c-12.53,0-22.48-3.39-30.23-8.92c-8.63,9.62-18.49,18.39-29.3,25.31
	c18.71,16.01,42.98,25.72,69.48,25.72C262.92,282.03,310.94,234.02,310.94,175z M177.55,195.27c15.11-26.4,21.04-52.71,14.41-64
	c-2.1-3.58-5.52-5.32-10.45-5.32c-0.08,0-0.16,0-0.23,0c-18.71,0.21-31.04,27.64-30.82,53.14c0.12,13.73,3.74,27.97,12.37,37.91
	C168.44,209.94,173.38,202.55,177.55,195.27z"/>
</svg>
