<?xml version="1.0" standalone="no"?>
<!DOCTYPE svg PUBLIC "-//W3C//DTD SVG 20010904//EN"
 "http://www.w3.org/TR/2001/REC-SVG-20010904/DTD/svg10.dtd">
<svg version="1.0" xmlns="http://www.w3.org/2000/svg"
 width="619.000000pt" height="618.000000pt" viewBox="0 0 619.000000 618.000000"
 preserveAspectRatio="xMidYMid meet">
<metadata>
Created by potrace 1.15, written by Peter Selinger 2001-2017
</metadata>
<g transform="translate(0.000000,618.000000) scale(0.100000,-0.100000)"
fill="#000000" stroke="none">
<path d="M1707 5832 c-15 -17 -17 -77 -17 -660 l0 -642 -643 0 c-611 0 -645
-1 -660 -18 -15 -17 -17 -58 -17 -390 l0 -371 295 -318 c162 -175 295 -323
295 -328 0 -6 -133 -154 -295 -330 l-294 -320 -1 -366 c0 -342 1 -367 18 -382
17 -15 77 -17 660 -17 l642 0 0 -648 c0 -616 1 -650 18 -665 17 -15 59 -17
393 -17 l375 0 357 342 357 343 0 253 0 253 57 52 c114 105 122 205 25 309
-26 27 -60 57 -76 65 -40 21 -123 20 -165 -1 -52 -28 -115 -97 -129 -142 -26
-90 -4 -152 81 -231 l57 -52 0 -229 0 -230 -301 -291 -302 -291 -293 0 -294 0
0 623 0 622 330 330 c315 314 330 328 348 312 10 -9 23 -17 28 -17 5 0 113
105 241 232 l233 233 -97 97 -98 98 -237 -237 -238 -237 27 -29 27 -28 -335
-334 -335 -335 -612 0 -612 0 0 288 1 287 281 308 281 307 243 0 c229 0 243
-1 249 -19 10 -32 100 -109 141 -120 55 -15 83 -13 129 8 47 22 119 94 134
134 15 39 14 111 -3 150 -7 18 -38 55 -68 84 -45 42 -64 53 -103 58 -75 12
-121 -7 -193 -81 l-63 -64 -232 0 -232 0 -104 113 c-57 61 -185 198 -283 304
l-178 192 0 291 0 290 619 0 619 0 194 -201 c106 -111 192 -206 191 -213 -1
-6 -7 -30 -13 -54 -15 -61 3 -121 53 -178 63 -71 129 -95 216 -78 40 8 133 91
155 138 37 77 11 172 -67 243 -58 54 -109 68 -184 53 l-56 -12 -198 198 -199
199 0 617 0 618 308 0 307 1 293 -296 292 -296 0 -222 0 -222 -36 -20 c-62
-33 -124 -129 -124 -192 0 -50 19 -99 56 -141 98 -115 249 -113 341 5 80 102
68 202 -35 295 l-52 46 0 229 0 228 293 293 292 292 293 0 292 0 0 -618 0
-619 -311 -299 c-170 -164 -315 -301 -320 -303 -6 -1 -19 5 -30 15 -20 18 -25
13 -254 -216 -129 -129 -235 -239 -235 -245 0 -13 172 -185 185 -185 6 0 116
106 245 235 l234 234 -23 25 c-13 13 -22 29 -20 35 2 5 144 145 314 310 l310
300 623 1 622 0 0 -291 0 -291 -178 -191 c-99 -106 -226 -243 -283 -304 l-104
-113 -241 0 -241 0 -26 39 c-56 85 -159 128 -243 101 -46 -15 -131 -92 -150
-137 -18 -41 -18 -114 0 -156 18 -44 104 -121 150 -137 42 -14 102 -8 146 15
15 8 50 39 78 70 l51 55 239 0 239 0 281 -307 281 -308 1 -287 0 -288 -616 0
-617 0 -166 173 c-310 321 -293 301 -281 331 27 71 0 154 -71 223 -51 49 -84
63 -145 63 -63 0 -102 -19 -155 -77 -78 -83 -88 -161 -32 -252 53 -86 152
-132 238 -110 22 6 47 11 55 12 8 1 113 -99 233 -222 l217 -224 0 -624 0 -623
-460 0 c-440 0 -460 1 -460 18 0 11 -8 26 -18 35 -16 15 -54 17 -329 17 -288
0 -311 -1 -326 -18 -26 -28 -25 -232 1 -255 16 -15 54 -17 329 -17 288 0 311
1 326 18 10 10 17 26 17 35 0 16 41 17 523 17 495 0 525 1 540 18 15 17 17 78
17 665 l0 647 648 0 c616 0 650 1 665 18 15 17 17 57 16 383 l0 364 -295 320
c-162 176 -294 324 -294 330 0 5 133 153 295 328 l295 318 0 368 0 368 -23 21
-23 22 -642 0 -642 0 0 643 c0 611 -1 645 -18 660 -17 15 -59 17 -393 17
l-374 0 -305 -305 c-168 -168 -309 -305 -315 -305 -6 0 -147 137 -315 305
l-305 305 -391 0 c-366 0 -392 -1 -407 -18z"/>
<path d="M2217 5392 c-15 -16 -17 -54 -17 -329 0 -288 1 -311 18 -326 10 -10
26 -17 35 -17 15 0 17 -14 17 -105 l0 -104 365 -343 c201 -188 365 -345 365
-349 0 -10 -550 -549 -561 -549 -4 0 -151 151 -326 334 l-318 335 -92 0 c-70
1 -93 4 -93 14 0 8 -10 23 -23 35 -23 22 -29 22 -328 22 l-306 0 -21 -23 c-20
-21 -22 -34 -22 -129 0 -89 3 -107 18 -121 16 -15 54 -17 329 -17 l310 0 21
23 c12 13 22 29 22 35 0 8 22 12 69 12 l69 0 297 -312 297 -312 -294 -293
-294 -293 -120 0 -120 0 -32 44 c-88 125 -241 141 -337 34 -92 -102 -87 -220
13 -310 49 -44 66 -53 114 -62 67 -12 117 9 186 80 l63 64 134 0 134 0 477
470 c262 259 482 470 488 468 6 -2 146 -139 311 -306 l300 -302 -468 -468
-467 -467 0 -130 -1 -130 -32 -20 -32 -20 -3 -314 c-2 -282 -1 -316 14 -333
15 -15 33 -18 124 -18 161 0 151 -25 148 356 l-3 309 -32 20 -32 20 -1 114 0
113 263 259 c144 142 265 257 268 256 4 -1 156 -149 338 -329 l331 -326 0 -44
c-1 -37 -5 -46 -33 -63 l-32 -20 -3 -309 c-3 -381 -13 -356 148 -356 91 0 109
3 123 18 15 16 17 54 17 329 l0 310 -23 21 c-13 12 -29 22 -35 22 -8 0 -12 22
-12 66 l0 66 -362 358 -363 359 300 300 c165 166 302 301 305 301 3 0 167
-166 365 -370 l360 -369 68 -1 c49 0 67 -4 67 -13 0 -8 10 -23 23 -35 23 -22
29 -22 328 -22 l306 0 21 23 c20 21 22 34 22 123 0 154 24 144 -357 144 -288
0 -311 -1 -326 -18 -10 -10 -17 -26 -17 -35 0 -13 -10 -17 -44 -17 l-44 0
-223 228 c-375 380 -439 448 -439 463 0 8 123 137 273 287 l272 272 103 0 c78
0 102 -3 102 -13 0 -8 10 -23 23 -35 23 -22 29 -22 328 -22 l306 0 21 23 c20
21 22 34 22 123 0 97 -1 101 -28 127 l-28 27 -296 0 c-284 0 -296 -1 -322 -21
-14 -11 -26 -29 -26 -40 0 -18 -8 -19 -123 -19 l-122 0 -304 -304 c-168 -168
-308 -303 -311 -301 -9 5 -52 -40 -45 -46 2 -3 -66 -74 -151 -159 l-156 -155
-299 305 c-164 168 -299 310 -299 317 0 6 214 222 475 479 l475 467 0 133 0
132 33 20 c73 46 117 117 117 191 0 109 -111 221 -218 221 -125 0 -248 -135
-227 -248 9 -51 37 -93 96 -146 l49 -44 0 -109 0 -109 -280 -273 -280 -273
-57 54 c-32 30 -175 164 -318 297 -143 134 -270 254 -282 268 -20 21 -23 35
-23 104 0 70 2 79 18 79 11 0 26 8 35 18 15 16 17 54 17 329 0 288 -1 311 -18
326 -28 26 -232 25 -255 -1z"/>
</g>
</svg>
